<?xml version="1.0" standalone="no"?><!DOCTYPE svg PUBLIC "-//W3C//DTD SVG 1.1//EN" "http://www.w3.org/Graphics/SVG/1.1/DTD/svg11.dtd"><svg t="1783953950675" class="icon" viewBox="0 0 1024 1024" version="1.1" xmlns="http://www.w3.org/2000/svg" p-id="8768" width="128" height="128" xmlns:xlink="http://www.w3.org/1999/xlink"><path d="M853.3504 128.7168c0-51.712-25.6-77.5168-76.8-77.5168H267.3664c-54.016 0-79.616 25.856-79.616 80.384v760.832c0 54.528 25.6 80.384 79.616 80.384h506.368c54.016 0 79.616-25.856 79.616-80.384V128.7168zM537.6 935.4752a51.2 51.2 0 0 1-51.2-51.712c0-28.672 22.7328-48.7936 51.2-48.7936s48.3328 20.1216 48.3328 48.8448c0 28.672-19.8656 48.7936-48.3328 51.6608z" fill="#3A78EE" p-id="8769"></path><path d="M787.9168 685.7216c0 51.6608-25.6 77.5168-76.8 77.5168H332.8c-51.2 0-76.8-25.856-76.8-77.5168V197.632c0-51.712 25.6-77.5168 76.8-77.5168h378.3168c51.2 0 76.8 25.8048 76.8 77.5168v488.0896z" fill="#FFFFFF" p-id="8770"></path><path d="M585.8816 221.8496c-46.08 0-94.976 40.2432-100.7616 86.272-2.8672 11.4688 2.9184 22.9888 14.4384 28.672 14.336 5.7856 23.04 0 31.6416-8.5504 8.6528-11.52 14.3872-23.04 20.1728-34.5088 14.336-20.1216 34.5088-23.04 57.5488-11.52 20.1728 8.6528 28.7744 34.5088 20.1728 54.6304a2503.9872 2503.9872 0 0 1-66.2016 120.7296c-8.704 17.2544-25.9584 25.856-46.08 17.2544-17.2544-5.7856-31.6928-2.8672-37.4272 17.2544-5.7856 17.2032 5.7344 25.856 20.1728 31.5904 40.2944 14.336 80.5888 0 106.496-43.1104 23.04-37.376 46.08-77.6192 63.3344-117.8624 37.4272-71.8336-8.6528-140.8-83.456-140.8z" fill="#3A78EE" p-id="8771"></path><path d="M530.688 558.7968c-14.336-5.632-25.8048-2.816-34.4064 8.448-8.6016 11.264-11.4688 22.4768-20.0704 33.6896a48.9984 48.9984 0 0 1-60.2624 11.264c-20.0704-11.264-25.8048-30.9248-17.2032-50.5856 20.0704-39.3728 40.1408-81.5104 65.9968-118.0672 11.4688-14.0288 22.9376-22.4768 43.008-16.896 17.2032 5.632 34.4064 2.8672 37.2736-16.8448 5.7344-19.6608-11.4688-28.1088-28.672-30.8736-37.2736-11.264-74.5984 5.632-100.352 42.1376a1573.888 1573.888 0 0 0-65.9968 118.0672c-28.672 61.7984 17.2032 126.464 86.016 126.464 45.9264 0 91.8016-33.7408 103.2704-78.6944 5.7344-11.264 2.8672-22.528-8.6016-28.16z" fill="#3A78EE" p-id="8772"></path></svg>
