<svg viewBox="0 0 1024 1024" xmlns="http://www.w3.org/2000/svg" aria-hidden="true" focusable="false"><path d="M837.8 148.61L534.03 66.89a84.759 84.759 0 0 0-43.87 0l-303.95 81.73c-32.75 8.8-55.21 36.09-55.21 67.06v374.66s4.84 185.31 342.5 360.4c23.82 12.35 53.37 12.35 77.19-0.01C888.16 775.64 893 590.34 893 590.34V215.67c0-30.96-22.46-58.25-55.2-67.06zM708.44 421.33l-78.87 76.88a15.037 15.037 0 0 0-4.33 13.31l18.62 108.55c2.61 15.19-13.33 26.77-26.97 19.6l-97.49-51.25a14.987 14.987 0 0 0-13.99 0l-97.49 51.25c-13.64 7.17-29.58-4.41-26.97-19.6l18.61-108.55c0.84-4.88-0.78-9.86-4.32-13.31l-78.87-76.88c-11.03-10.76-4.95-29.49 10.3-31.71l109-15.84c4.9-0.71 9.13-3.79 11.32-8.22l48.74-98.77c6.82-13.82 26.53-13.82 33.34 0l48.75 98.77c2.19 4.43 6.42 7.51 11.32 8.22l109 15.84c15.24 2.22 21.33 20.95 10.3 31.71z" fill="#d7cd11"/></svg>
