<svg viewBox="0 0 1024 1024" xmlns="http://www.w3.org/2000/svg" aria-hidden="true" focusable="false"><path d="M896 96a162.72 162.72 0 0 0-229.92 0L640 121.76 613.92 96A162.72 162.72 0 0 0 384 96a162.72 162.72 0 0 0 0 230.24l241.6 241.6a20.96 20.96 0 0 0 29.6 0L896 325.92A162.72 162.72 0 0 0 896 96z" fill="#ED7899"/><path d="M549.92 212L497.12 160a57.28 57.28 0 0 1 59.04-96A208 208 0 0 1 640 121.76z" fill="#F283A5"/><path d="M720 728.16l-62.08 15.2-263.52-147.2 7.68 3.36 150.56 71.04a96 96 0 0 0 48 8.96l35.04-2.56a64 64 0 0 1 58.4 29.6 26.08 26.08 0 0 1 1.6 2.88A34.56 34.56 0 0 0 720 728.16z" fill="#CDA1A7"/><path d="M432 768l80 32a160 160 0 0 0 124.96-2.56l47.2-21.28a32 32 0 0 0 19.84-28.8v-6.56a64 64 0 0 0-68.64-64l-35.04 2.56a96 96 0 0 1-48-8.96l-150.56-71.04a192 192 0 0 0-104.16-16.96L108.32 604.64a32 32 0 0 0-28.32 32v202.4a32 32 0 0 0 39.68 31.04L224 843.84a128 128 0 0 1 90.72 10.88l202.08 106.08a128 128 0 0 0 118.56 0L976 784a58.88 58.88 0 0 0 32-52.32 58.88 58.88 0 0 0-73.6-56.96L704 734.88" fill="#FAEFDE"/><path d="M679.84 874.24l-44.48 23.04a128 128 0 0 1-118.56 0l-201.44-106.56a128 128 0 0 0-91.36-10.88L80 816v23.04a32 32 0 0 0 39.68 31.04L224 843.84a128 128 0 0 1 90.72 10.88l202.08 106.08a128 128 0 0 0 118.56 0l113.6-58.88-5.44-9.6a48 48 0 0 0-63.68-18.08z" fill="#EFD8BE"/><path d="M401.92 663.52l150.56 71.04a96 96 0 0 0 48 8.96l35.04-2.56a64 64 0 0 1 58.4 29.76l1.6 2.88a32 32 0 0 0 37.44 17.92L1006.56 720a58.72 58.72 0 0 0-72.32-45.28L704 734.88a64 64 0 0 0-68-57.92l-35.04 2.56a96 96 0 0 1-48-8.96l-150.56-71.04a192 192 0 0 0-104.8-17.12L108.32 604.64a32 32 0 0 0-28.32 32V672l217.6-25.6a192 192 0 0 1 104.32 17.12z" fill="#FFF7F0"/><path d="M720 728.16l188.16-46.24-176 45.44a35.68 35.68 0 0 1-12.16 0.8z" fill="#FFF7F0"/><path d="M176 640H144a16 16 0 0 0 0 32h32a16 16 0 0 0 0-32zM176 720H144a16 16 0 0 0 0 32h32a16 16 0 0 0 0-32zM176 800H144a16 16 0 0 0 0 32h32a16 16 0 0 0 0-32z" fill="#8D6C9F"/><path d="M994.88 672.8a74.4 74.4 0 0 0-64-13.28L715.84 715.2a80 80 0 0 0-81.6-54.24l-35.04 2.56A80 80 0 0 1 560 656l-150.56-71.04a208 208 0 0 0-113.12-18.4L106.4 588.8a48 48 0 0 0-42.4 48v202.24a48 48 0 0 0 59.68 46.56l104.96-26.24a112 112 0 0 1 80 9.6l201.44 106.08a144 144 0 0 0 133.44 0l340.8-176a75.04 75.04 0 0 0 11.36-125.76z m-26.08 97.44l-340.8 176a112 112 0 0 1-103.68 0l-201.44-105.6a144 144 0 0 0-101.92-12.32l-105.12 26.24a16 16 0 0 1-19.84-16V636.48a16 16 0 0 1 14.08-16l189.28-22.24a176 176 0 0 1 96 16l150.56 71.04a112 112 0 0 0 55.84 10.4l35.04-2.56a48 48 0 0 1 51.52 48v6.56a16 16 0 0 1-9.44 14.56l-48 21.28a144 144 0 0 1-112 2.4l-80-32a16 16 0 1 0-11.84 29.76l80 32a176.8 176.8 0 0 0 137.6-2.88l48-21.28A48 48 0 0 0 720 747.36l218.4-56.64a42.88 42.88 0 0 1 30.56 80z" fill="#8D6C9F"/><path d="M840 382.24L654.88 567.52a20.96 20.96 0 0 1-29.6 0l-16-17.76a96 96 0 0 1 3.52-132l131.36-131.36a67.84 67.84 0 0 1 96 0 67.84 67.84 0 0 1-0.16 95.84z" fill="#E0678F"/><path d="M907.68 84.32a178.88 178.88 0 0 0-252.8 0l-14.4 14.4-14.88-14.88a178.72 178.72 0 1 0-252.8 252.8l241.6 241.6a36.64 36.64 0 0 0 26.08 10.88 36.64 36.64 0 0 0 26.08-10.88l241.44-241.6a178.88 178.88 0 0 0-0.32-252.32z m-22.72 230.24l-241.44 241.6a4.32 4.32 0 0 1-7.04 0l-241.6-241.6a146.72 146.72 0 0 1 208-208l14.88 14.88-3.52 3.52a16 16 0 1 0 22.56 22.56L640 144l37.44-37.44a146.72 146.72 0 1 1 208 208z" fill="#8D6C9F"/><path d="M576 162.88l-26.56 26.56a16 16 0 1 0 22.56 22.56l26.56-26.56A16 16 0 0 0 576 162.88z" fill="#8D6C9F"/></svg>
