<svg viewBox="0 0 1024 1024" xmlns="http://www.w3.org/2000/svg" aria-hidden="true" focusable="false"><path d="M247.466667 224.64c-154.24 38.186667-176.64 172.8-170.666667 248.746667 3.626667 56.746667 32.426667 152.96 48.213333 228.053333L362.666667 685.866667c-3.2-74.666667 30.293333-147.413333 57.813333-207.786667 32.64-71.68-21.76-290.773333-173.013333-253.44zM130.56 756.266667c1.92 11.306667 3.2 21.333333 4.053333 31.36 5.76 74.24 48.213333 165.12 142.506667 148.266666s114.56-93.013333 92.586667-182.4c0-4.266667-1.92-8.32-2.56-12.586666zM810.666667 102.826667c-136.32-75.52-245.973333 121.813333-233.173334 199.466666 10.666667 65.493333 24.106667 144.426667 1.493334 215.893334l226.773333 77.226666c34.773333-68.48 87.68-154.026667 106.666667-207.573333 23.466667-71.893333 37.12-207.786667-101.76-285.013333zM546.56 588.373333c-44.586667 80.64-45.013333 159.786667 41.6 200.533334s151.466667-35.84 176.426667-106.666667c3.2-8.96 7.253333-18.56 11.946666-29.013333l-224.213333-76.8a112.64 112.64 0 0 1-5.76 11.946666z" fill="#00D293"/></svg>
